<?xml version="1.0" encoding="iso-8859-1"?>
<!-- Generator: Adobe Illustrator 19.0.0, SVG Export Plug-In . SVG Version: 6.00 Build 0)  -->
<svg version="1.1" id="Layer_1" xmlns="http://www.w3.org/2000/svg" xmlns:xlink="http://www.w3.org/1999/xlink" x="0px" y="0px"
	 viewBox="0 0 460 460" style="enable-background:new 0 0 460 460;" xml:space="preserve">
<rect y="50.176" style="fill:#D8D9DD;" width="460" height="339.352"/>
<path style="fill:#EDEEF0;" d="M419.718,314.547v-189.39c-19.164,0-34.699-15.535-34.699-34.699H74.981
	c0,19.164-15.535,34.699-34.699,34.699v189.39c19.164,0,34.699,15.535,34.699,34.699h310.038
	C385.019,330.083,400.554,314.547,419.718,314.547z"/>
<polygon style="fill:#C8523B;" points="341.727,409.824 311.228,386.587 279.277,409.824 279.277,328.495 341.727,328.495 "/>
<path style="fill:#E5C400;" d="M353.873,313.756c0,24.224-19.64,43.87-43.873,43.87s-43.873-19.646-43.873-43.87
	c0-24.23,19.64-43.876,43.873-43.876S353.873,289.526,353.873,313.756z"/>
<path style="opacity:0.3;fill:#5B5B5F;enable-background:new    ;" d="M353.873,313.756c0-24.23-19.64-43.876-43.873-43.876v58.614
	v29.131v29.489l0.726-0.528l30.498,23.237v-65.26C349.043,336.642,353.873,325.763,353.873,313.756z"/>
<rect x="170" y="151.324" style="opacity:0.4;fill:#5B5B5F;enable-background:new    ;" width="120" height="10"/>
<rect x="117.03" y="194.852" style="opacity:0.4;fill:#5B5B5F;enable-background:new    ;" width="225.94" height="10"/>
<rect x="117.03" y="238.381" style="opacity:0.4;fill:#5B5B5F;enable-background:new    ;" width="225.94" height="10"/>
<g>
</g>
<g>
</g>
<g>
</g>
<g>
</g>
<g>
</g>
<g>
</g>
<g>
</g>
<g>
</g>
<g>
</g>
<g>
</g>
<g>
</g>
<g>
</g>
<g>
</g>
<g>
</g>
<g>
</g>
</svg>
